%TF.GenerationSoftware,KiCad,Pcbnew,(6.0.0)*%
%TF.CreationDate,2022-01-23T17:01:15-03:00*%
%TF.ProjectId,Circuito fuente,43697263-7569-4746-9f20-6675656e7465,V02*%
%TF.SameCoordinates,Original*%
%TF.FileFunction,Legend,Top*%
%TF.FilePolarity,Positive*%
%FSLAX46Y46*%
G04 Gerber Fmt 4.6, Leading zero omitted, Abs format (unit mm)*
G04 Created by KiCad (PCBNEW (6.0.0)) date 2022-01-23 17:01:15*
%MOMM*%
%LPD*%
G01*
G04 APERTURE LIST*
%ADD10C,0.150000*%
%ADD11C,0.120000*%
%ADD12C,0.127000*%
%ADD13C,0.500000*%
%ADD14C,0.100000*%
%ADD15C,0.200000*%
G04 APERTURE END LIST*
D10*
%TO.C,U3*%
X168571404Y-126297619D02*
X168571404Y-125488095D01*
X168523785Y-125392857D01*
X168476166Y-125345238D01*
X168380928Y-125297619D01*
X168190452Y-125297619D01*
X168095214Y-125345238D01*
X168047595Y-125392857D01*
X167999976Y-125488095D01*
X167999976Y-126297619D01*
X167619023Y-126297619D02*
X166999976Y-126297619D01*
X167333309Y-125916666D01*
X167190452Y-125916666D01*
X167095214Y-125869047D01*
X167047595Y-125821428D01*
X166999976Y-125726190D01*
X166999976Y-125488095D01*
X167047595Y-125392857D01*
X167095214Y-125345238D01*
X167190452Y-125297619D01*
X167476166Y-125297619D01*
X167571404Y-125345238D01*
X167619023Y-125392857D01*
%TO.C,U5*%
X146952404Y-126297619D02*
X146952404Y-125488095D01*
X146904785Y-125392857D01*
X146857166Y-125345238D01*
X146761928Y-125297619D01*
X146571452Y-125297619D01*
X146476214Y-125345238D01*
X146428595Y-125392857D01*
X146380976Y-125488095D01*
X146380976Y-126297619D01*
X145428595Y-126297619D02*
X145904785Y-126297619D01*
X145952404Y-125821428D01*
X145904785Y-125869047D01*
X145809547Y-125916666D01*
X145571452Y-125916666D01*
X145476214Y-125869047D01*
X145428595Y-125821428D01*
X145380976Y-125726190D01*
X145380976Y-125488095D01*
X145428595Y-125392857D01*
X145476214Y-125345238D01*
X145571452Y-125297619D01*
X145809547Y-125297619D01*
X145904785Y-125345238D01*
X145952404Y-125392857D01*
%TO.C,C14*%
X149551474Y-56324857D02*
X149599093Y-56372476D01*
X149646712Y-56515333D01*
X149646712Y-56610571D01*
X149599093Y-56753428D01*
X149503855Y-56848666D01*
X149408617Y-56896285D01*
X149218141Y-56943904D01*
X149075284Y-56943904D01*
X148884808Y-56896285D01*
X148789570Y-56848666D01*
X148694332Y-56753428D01*
X148646712Y-56610571D01*
X148646712Y-56515333D01*
X148694332Y-56372476D01*
X148741951Y-56324857D01*
X149646712Y-55372476D02*
X149646712Y-55943904D01*
X149646712Y-55658190D02*
X148646712Y-55658190D01*
X148789570Y-55753428D01*
X148884808Y-55848666D01*
X148932427Y-55943904D01*
X148980046Y-54515333D02*
X149646712Y-54515333D01*
X148599093Y-54753428D02*
X149313379Y-54991523D01*
X149313379Y-54372476D01*
%TO.C,C10*%
X146448523Y-56175142D02*
X146400904Y-56127523D01*
X146353285Y-55984666D01*
X146353285Y-55889428D01*
X146400904Y-55746571D01*
X146496142Y-55651333D01*
X146591380Y-55603714D01*
X146781856Y-55556095D01*
X146924713Y-55556095D01*
X147115189Y-55603714D01*
X147210427Y-55651333D01*
X147305666Y-55746571D01*
X147353285Y-55889428D01*
X147353285Y-55984666D01*
X147305666Y-56127523D01*
X147258046Y-56175142D01*
X146353285Y-57127523D02*
X146353285Y-56556095D01*
X146353285Y-56841809D02*
X147353285Y-56841809D01*
X147210427Y-56746571D01*
X147115189Y-56651333D01*
X147067570Y-56556095D01*
X147353285Y-57746571D02*
X147353285Y-57841809D01*
X147305666Y-57937047D01*
X147258046Y-57984666D01*
X147162808Y-58032285D01*
X146972332Y-58079904D01*
X146734237Y-58079904D01*
X146543761Y-58032285D01*
X146448523Y-57984666D01*
X146400904Y-57937047D01*
X146353285Y-57841809D01*
X146353285Y-57746571D01*
X146400904Y-57651333D01*
X146448523Y-57603714D01*
X146543761Y-57556095D01*
X146734237Y-57508476D01*
X146972332Y-57508476D01*
X147162808Y-57556095D01*
X147258046Y-57603714D01*
X147305666Y-57651333D01*
X147353285Y-57746571D01*
%TO.C,R1*%
X153035333Y-93908380D02*
X152702000Y-93432190D01*
X152463904Y-93908380D02*
X152463904Y-92908380D01*
X152844857Y-92908380D01*
X152940095Y-92956000D01*
X152987714Y-93003619D01*
X153035333Y-93098857D01*
X153035333Y-93241714D01*
X152987714Y-93336952D01*
X152940095Y-93384571D01*
X152844857Y-93432190D01*
X152463904Y-93432190D01*
X153987714Y-93908380D02*
X153416285Y-93908380D01*
X153702000Y-93908380D02*
X153702000Y-92908380D01*
X153606761Y-93051238D01*
X153511523Y-93146476D01*
X153416285Y-93194095D01*
%TO.C,C24*%
X177800392Y-78687142D02*
X177752773Y-78734761D01*
X177609916Y-78782380D01*
X177514678Y-78782380D01*
X177371821Y-78734761D01*
X177276583Y-78639523D01*
X177228964Y-78544285D01*
X177181345Y-78353809D01*
X177181345Y-78210952D01*
X177228964Y-78020476D01*
X177276583Y-77925238D01*
X177371821Y-77830000D01*
X177514678Y-77782380D01*
X177609916Y-77782380D01*
X177752773Y-77830000D01*
X177800392Y-77877619D01*
X178181345Y-77877619D02*
X178228964Y-77830000D01*
X178324202Y-77782380D01*
X178562297Y-77782380D01*
X178657535Y-77830000D01*
X178705154Y-77877619D01*
X178752773Y-77972857D01*
X178752773Y-78068095D01*
X178705154Y-78210952D01*
X178133726Y-78782380D01*
X178752773Y-78782380D01*
X179609916Y-78115714D02*
X179609916Y-78782380D01*
X179371821Y-77734761D02*
X179133726Y-78449047D01*
X179752773Y-78449047D01*
%TO.C,C21*%
X169970642Y-80107142D02*
X169923023Y-80154761D01*
X169780166Y-80202380D01*
X169684928Y-80202380D01*
X169542071Y-80154761D01*
X169446833Y-80059523D01*
X169399214Y-79964285D01*
X169351595Y-79773809D01*
X169351595Y-79630952D01*
X169399214Y-79440476D01*
X169446833Y-79345238D01*
X169542071Y-79250000D01*
X169684928Y-79202380D01*
X169780166Y-79202380D01*
X169923023Y-79250000D01*
X169970642Y-79297619D01*
X170351595Y-79297619D02*
X170399214Y-79250000D01*
X170494452Y-79202380D01*
X170732547Y-79202380D01*
X170827785Y-79250000D01*
X170875404Y-79297619D01*
X170923023Y-79392857D01*
X170923023Y-79488095D01*
X170875404Y-79630952D01*
X170303976Y-80202380D01*
X170923023Y-80202380D01*
X171875404Y-80202380D02*
X171303976Y-80202380D01*
X171589690Y-80202380D02*
X171589690Y-79202380D01*
X171494452Y-79345238D01*
X171399214Y-79440476D01*
X171303976Y-79488095D01*
%TO.C,C20*%
X154199607Y-90812857D02*
X154247226Y-90765238D01*
X154390083Y-90717619D01*
X154485321Y-90717619D01*
X154628178Y-90765238D01*
X154723416Y-90860476D01*
X154771035Y-90955714D01*
X154818654Y-91146190D01*
X154818654Y-91289047D01*
X154771035Y-91479523D01*
X154723416Y-91574761D01*
X154628178Y-91670000D01*
X154485321Y-91717619D01*
X154390083Y-91717619D01*
X154247226Y-91670000D01*
X154199607Y-91622380D01*
X153818654Y-91622380D02*
X153771035Y-91670000D01*
X153675797Y-91717619D01*
X153437702Y-91717619D01*
X153342464Y-91670000D01*
X153294845Y-91622380D01*
X153247226Y-91527142D01*
X153247226Y-91431904D01*
X153294845Y-91289047D01*
X153866273Y-90717619D01*
X153247226Y-90717619D01*
X152628178Y-91717619D02*
X152532940Y-91717619D01*
X152437702Y-91670000D01*
X152390083Y-91622380D01*
X152342464Y-91527142D01*
X152294845Y-91336666D01*
X152294845Y-91098571D01*
X152342464Y-90908095D01*
X152390083Y-90812857D01*
X152437702Y-90765238D01*
X152532940Y-90717619D01*
X152628178Y-90717619D01*
X152723416Y-90765238D01*
X152771035Y-90812857D01*
X152818654Y-90908095D01*
X152866273Y-91098571D01*
X152866273Y-91336666D01*
X152818654Y-91527142D01*
X152771035Y-91622380D01*
X152723416Y-91670000D01*
X152628178Y-91717619D01*
%TO.C,U2*%
X125761904Y-124527272D02*
X125761904Y-123717748D01*
X125714285Y-123622510D01*
X125666666Y-123574891D01*
X125571428Y-123527272D01*
X125380952Y-123527272D01*
X125285714Y-123574891D01*
X125238095Y-123622510D01*
X125190476Y-123717748D01*
X125190476Y-124527272D01*
X124761904Y-124432033D02*
X124714285Y-124479653D01*
X124619047Y-124527272D01*
X124380952Y-124527272D01*
X124285714Y-124479653D01*
X124238095Y-124432033D01*
X124190476Y-124336795D01*
X124190476Y-124241557D01*
X124238095Y-124098700D01*
X124809523Y-123527272D01*
X124190476Y-123527272D01*
%TO.C,U6*%
X185761904Y-124527272D02*
X185761904Y-123717748D01*
X185714285Y-123622510D01*
X185666666Y-123574891D01*
X185571428Y-123527272D01*
X185380952Y-123527272D01*
X185285714Y-123574891D01*
X185238095Y-123622510D01*
X185190476Y-123717748D01*
X185190476Y-124527272D01*
X184285714Y-124527272D02*
X184476190Y-124527272D01*
X184571428Y-124479653D01*
X184619047Y-124432033D01*
X184714285Y-124289176D01*
X184761904Y-124098700D01*
X184761904Y-123717748D01*
X184714285Y-123622510D01*
X184666666Y-123574891D01*
X184571428Y-123527272D01*
X184380952Y-123527272D01*
X184285714Y-123574891D01*
X184238095Y-123622510D01*
X184190476Y-123717748D01*
X184190476Y-123955843D01*
X184238095Y-124051081D01*
X184285714Y-124098700D01*
X184380952Y-124146319D01*
X184571428Y-124146319D01*
X184666666Y-124098700D01*
X184714285Y-124051081D01*
X184761904Y-123955843D01*
%TO.C,U45*%
X177011904Y-106527380D02*
X177011904Y-107336904D01*
X177059523Y-107432142D01*
X177107142Y-107479761D01*
X177202380Y-107527380D01*
X177392857Y-107527380D01*
X177488095Y-107479761D01*
X177535714Y-107432142D01*
X177583333Y-107336904D01*
X177583333Y-106527380D01*
X178488095Y-106860714D02*
X178488095Y-107527380D01*
X178250000Y-106479761D02*
X178011904Y-107194047D01*
X178630952Y-107194047D01*
X179488095Y-106527380D02*
X179011904Y-106527380D01*
X178964285Y-107003571D01*
X179011904Y-106955952D01*
X179107142Y-106908333D01*
X179345238Y-106908333D01*
X179440476Y-106955952D01*
X179488095Y-107003571D01*
X179535714Y-107098809D01*
X179535714Y-107336904D01*
X179488095Y-107432142D01*
X179440476Y-107479761D01*
X179345238Y-107527380D01*
X179107142Y-107527380D01*
X179011904Y-107479761D01*
X178964285Y-107432142D01*
%TO.C,U41*%
X172221904Y-74222380D02*
X172221904Y-75031904D01*
X172269523Y-75127142D01*
X172317142Y-75174761D01*
X172412380Y-75222380D01*
X172602857Y-75222380D01*
X172698095Y-75174761D01*
X172745714Y-75127142D01*
X172793333Y-75031904D01*
X172793333Y-74222380D01*
X173698095Y-74555714D02*
X173698095Y-75222380D01*
X173460000Y-74174761D02*
X173221904Y-74889047D01*
X173840952Y-74889047D01*
X174745714Y-75222380D02*
X174174285Y-75222380D01*
X174460000Y-75222380D02*
X174460000Y-74222380D01*
X174364761Y-74365238D01*
X174269523Y-74460476D01*
X174174285Y-74508095D01*
%TO.C,U40*%
X122221904Y-74222380D02*
X122221904Y-75031904D01*
X122269523Y-75127142D01*
X122317142Y-75174761D01*
X122412380Y-75222380D01*
X122602857Y-75222380D01*
X122698095Y-75174761D01*
X122745714Y-75127142D01*
X122793333Y-75031904D01*
X122793333Y-74222380D01*
X123698095Y-74555714D02*
X123698095Y-75222380D01*
X123460000Y-74174761D02*
X123221904Y-74889047D01*
X123840952Y-74889047D01*
X124412380Y-74222380D02*
X124507619Y-74222380D01*
X124602857Y-74270000D01*
X124650476Y-74317619D01*
X124698095Y-74412857D01*
X124745714Y-74603333D01*
X124745714Y-74841428D01*
X124698095Y-75031904D01*
X124650476Y-75127142D01*
X124602857Y-75174761D01*
X124507619Y-75222380D01*
X124412380Y-75222380D01*
X124317142Y-75174761D01*
X124269523Y-75127142D01*
X124221904Y-75031904D01*
X124174285Y-74841428D01*
X124174285Y-74603333D01*
X124221904Y-74412857D01*
X124269523Y-74317619D01*
X124317142Y-74270000D01*
X124412380Y-74222380D01*
%TO.C,U39*%
X155555236Y-74222380D02*
X155555236Y-75031904D01*
X155602855Y-75127142D01*
X155650474Y-75174761D01*
X155745712Y-75222380D01*
X155936189Y-75222380D01*
X156031427Y-75174761D01*
X156079046Y-75127142D01*
X156126665Y-75031904D01*
X156126665Y-74222380D01*
X156507617Y-74222380D02*
X157126665Y-74222380D01*
X156793332Y-74603333D01*
X156936189Y-74603333D01*
X157031427Y-74650952D01*
X157079046Y-74698571D01*
X157126665Y-74793809D01*
X157126665Y-75031904D01*
X157079046Y-75127142D01*
X157031427Y-75174761D01*
X156936189Y-75222380D01*
X156650474Y-75222380D01*
X156555236Y-75174761D01*
X156507617Y-75127142D01*
X157602855Y-75222380D02*
X157793332Y-75222380D01*
X157888570Y-75174761D01*
X157936189Y-75127142D01*
X158031427Y-74984285D01*
X158079046Y-74793809D01*
X158079046Y-74412857D01*
X158031427Y-74317619D01*
X157983808Y-74270000D01*
X157888570Y-74222380D01*
X157698093Y-74222380D01*
X157602855Y-74270000D01*
X157555236Y-74317619D01*
X157507617Y-74412857D01*
X157507617Y-74650952D01*
X157555236Y-74746190D01*
X157602855Y-74793809D01*
X157698093Y-74841428D01*
X157888570Y-74841428D01*
X157983808Y-74793809D01*
X158031427Y-74746190D01*
X158079046Y-74650952D01*
%TO.C,U35*%
X138888570Y-74222380D02*
X138888570Y-75031904D01*
X138936189Y-75127142D01*
X138983808Y-75174761D01*
X139079046Y-75222380D01*
X139269523Y-75222380D01*
X139364761Y-75174761D01*
X139412380Y-75127142D01*
X139459999Y-75031904D01*
X139459999Y-74222380D01*
X139840951Y-74222380D02*
X140459999Y-74222380D01*
X140126666Y-74603333D01*
X140269523Y-74603333D01*
X140364761Y-74650952D01*
X140412380Y-74698571D01*
X140459999Y-74793809D01*
X140459999Y-75031904D01*
X140412380Y-75127142D01*
X140364761Y-75174761D01*
X140269523Y-75222380D01*
X139983808Y-75222380D01*
X139888570Y-75174761D01*
X139840951Y-75127142D01*
X141364761Y-74222380D02*
X140888570Y-74222380D01*
X140840951Y-74698571D01*
X140888570Y-74650952D01*
X140983808Y-74603333D01*
X141221904Y-74603333D01*
X141317142Y-74650952D01*
X141364761Y-74698571D01*
X141412380Y-74793809D01*
X141412380Y-75031904D01*
X141364761Y-75127142D01*
X141317142Y-75174761D01*
X141221904Y-75222380D01*
X140983808Y-75222380D01*
X140888570Y-75174761D01*
X140840951Y-75127142D01*
%TO.C,U4*%
X123698095Y-106527380D02*
X123698095Y-107336904D01*
X123745714Y-107432142D01*
X123793333Y-107479761D01*
X123888571Y-107527380D01*
X124079047Y-107527380D01*
X124174285Y-107479761D01*
X124221904Y-107432142D01*
X124269523Y-107336904D01*
X124269523Y-106527380D01*
X125174285Y-106860714D02*
X125174285Y-107527380D01*
X124936190Y-106479761D02*
X124698095Y-107194047D01*
X125317142Y-107194047D01*
%TO.C,U1*%
X113238095Y-28002380D02*
X113238095Y-28811904D01*
X113285714Y-28907142D01*
X113333333Y-28954761D01*
X113428571Y-29002380D01*
X113619047Y-29002380D01*
X113714285Y-28954761D01*
X113761904Y-28907142D01*
X113809523Y-28811904D01*
X113809523Y-28002380D01*
X114809523Y-29002380D02*
X114238095Y-29002380D01*
X114523809Y-29002380D02*
X114523809Y-28002380D01*
X114428571Y-28145238D01*
X114333333Y-28240476D01*
X114238095Y-28288095D01*
%TO.C,Q1*%
X158114761Y-107622619D02*
X158019523Y-107575000D01*
X157924285Y-107479761D01*
X157781428Y-107336904D01*
X157686190Y-107289285D01*
X157590952Y-107289285D01*
X157638571Y-107527380D02*
X157543333Y-107479761D01*
X157448095Y-107384523D01*
X157400476Y-107194047D01*
X157400476Y-106860714D01*
X157448095Y-106670238D01*
X157543333Y-106575000D01*
X157638571Y-106527380D01*
X157829047Y-106527380D01*
X157924285Y-106575000D01*
X158019523Y-106670238D01*
X158067142Y-106860714D01*
X158067142Y-107194047D01*
X158019523Y-107384523D01*
X157924285Y-107479761D01*
X157829047Y-107527380D01*
X157638571Y-107527380D01*
X159019523Y-107527380D02*
X158448095Y-107527380D01*
X158733809Y-107527380D02*
X158733809Y-106527380D01*
X158638571Y-106670238D01*
X158543333Y-106765476D01*
X158448095Y-106813095D01*
%TO.C,D2*%
X157302380Y-38088095D02*
X156302380Y-38088095D01*
X156302380Y-37850000D01*
X156350000Y-37707142D01*
X156445238Y-37611904D01*
X156540476Y-37564285D01*
X156730952Y-37516666D01*
X156873809Y-37516666D01*
X157064285Y-37564285D01*
X157159523Y-37611904D01*
X157254761Y-37707142D01*
X157302380Y-37850000D01*
X157302380Y-38088095D01*
X156397619Y-37135714D02*
X156350000Y-37088095D01*
X156302380Y-36992857D01*
X156302380Y-36754761D01*
X156350000Y-36659523D01*
X156397619Y-36611904D01*
X156492857Y-36564285D01*
X156588095Y-36564285D01*
X156730952Y-36611904D01*
X157302380Y-37183333D01*
X157302380Y-36564285D01*
%TO.C,D1*%
X168561904Y-94232380D02*
X168561904Y-93232380D01*
X168800000Y-93232380D01*
X168942857Y-93280000D01*
X169038095Y-93375238D01*
X169085714Y-93470476D01*
X169133333Y-93660952D01*
X169133333Y-93803809D01*
X169085714Y-93994285D01*
X169038095Y-94089523D01*
X168942857Y-94184761D01*
X168800000Y-94232380D01*
X168561904Y-94232380D01*
X170085714Y-94232380D02*
X169514285Y-94232380D01*
X169800000Y-94232380D02*
X169800000Y-93232380D01*
X169704761Y-93375238D01*
X169609523Y-93470476D01*
X169514285Y-93518095D01*
X165228095Y-94802380D02*
X165228095Y-93802380D01*
X165799523Y-94802380D02*
X165370952Y-94230952D01*
X165799523Y-93802380D02*
X165228095Y-94373809D01*
%TO.C,C27*%
X122107142Y-78937142D02*
X122059523Y-78984761D01*
X121916666Y-79032380D01*
X121821428Y-79032380D01*
X121678571Y-78984761D01*
X121583333Y-78889523D01*
X121535714Y-78794285D01*
X121488095Y-78603809D01*
X121488095Y-78460952D01*
X121535714Y-78270476D01*
X121583333Y-78175238D01*
X121678571Y-78080000D01*
X121821428Y-78032380D01*
X121916666Y-78032380D01*
X122059523Y-78080000D01*
X122107142Y-78127619D01*
X122488095Y-78127619D02*
X122535714Y-78080000D01*
X122630952Y-78032380D01*
X122869047Y-78032380D01*
X122964285Y-78080000D01*
X123011904Y-78127619D01*
X123059523Y-78222857D01*
X123059523Y-78318095D01*
X123011904Y-78460952D01*
X122440476Y-79032380D01*
X123059523Y-79032380D01*
X123392857Y-78032380D02*
X124059523Y-78032380D01*
X123630952Y-79032380D01*
%TO.C,C26*%
X179357142Y-94107142D02*
X179309523Y-94154761D01*
X179166666Y-94202380D01*
X179071428Y-94202380D01*
X178928571Y-94154761D01*
X178833333Y-94059523D01*
X178785714Y-93964285D01*
X178738095Y-93773809D01*
X178738095Y-93630952D01*
X178785714Y-93440476D01*
X178833333Y-93345238D01*
X178928571Y-93250000D01*
X179071428Y-93202380D01*
X179166666Y-93202380D01*
X179309523Y-93250000D01*
X179357142Y-93297619D01*
X179738095Y-93297619D02*
X179785714Y-93250000D01*
X179880952Y-93202380D01*
X180119047Y-93202380D01*
X180214285Y-93250000D01*
X180261904Y-93297619D01*
X180309523Y-93392857D01*
X180309523Y-93488095D01*
X180261904Y-93630952D01*
X179690476Y-94202380D01*
X180309523Y-94202380D01*
X181166666Y-93202380D02*
X180976190Y-93202380D01*
X180880952Y-93250000D01*
X180833333Y-93297619D01*
X180738095Y-93440476D01*
X180690476Y-93630952D01*
X180690476Y-94011904D01*
X180738095Y-94107142D01*
X180785714Y-94154761D01*
X180880952Y-94202380D01*
X181071428Y-94202380D01*
X181166666Y-94154761D01*
X181214285Y-94107142D01*
X181261904Y-94011904D01*
X181261904Y-93773809D01*
X181214285Y-93678571D01*
X181166666Y-93630952D01*
X181071428Y-93583333D01*
X180880952Y-93583333D01*
X180785714Y-93630952D01*
X180738095Y-93678571D01*
X180690476Y-93773809D01*
%TO.C,C25*%
X189550392Y-78687142D02*
X189502773Y-78734761D01*
X189359916Y-78782380D01*
X189264678Y-78782380D01*
X189121821Y-78734761D01*
X189026583Y-78639523D01*
X188978964Y-78544285D01*
X188931345Y-78353809D01*
X188931345Y-78210952D01*
X188978964Y-78020476D01*
X189026583Y-77925238D01*
X189121821Y-77830000D01*
X189264678Y-77782380D01*
X189359916Y-77782380D01*
X189502773Y-77830000D01*
X189550392Y-77877619D01*
X189931345Y-77877619D02*
X189978964Y-77830000D01*
X190074202Y-77782380D01*
X190312297Y-77782380D01*
X190407535Y-77830000D01*
X190455154Y-77877619D01*
X190502773Y-77972857D01*
X190502773Y-78068095D01*
X190455154Y-78210952D01*
X189883726Y-78782380D01*
X190502773Y-78782380D01*
X191407535Y-77782380D02*
X190931345Y-77782380D01*
X190883726Y-78258571D01*
X190931345Y-78210952D01*
X191026583Y-78163333D01*
X191264678Y-78163333D01*
X191359916Y-78210952D01*
X191407535Y-78258571D01*
X191455154Y-78353809D01*
X191455154Y-78591904D01*
X191407535Y-78687142D01*
X191359916Y-78734761D01*
X191264678Y-78782380D01*
X191026583Y-78782380D01*
X190931345Y-78734761D01*
X190883726Y-78687142D01*
%TO.C,C23*%
X139857142Y-95107142D02*
X139809523Y-95154761D01*
X139666666Y-95202380D01*
X139571428Y-95202380D01*
X139428571Y-95154761D01*
X139333333Y-95059523D01*
X139285714Y-94964285D01*
X139238095Y-94773809D01*
X139238095Y-94630952D01*
X139285714Y-94440476D01*
X139333333Y-94345238D01*
X139428571Y-94250000D01*
X139571428Y-94202380D01*
X139666666Y-94202380D01*
X139809523Y-94250000D01*
X139857142Y-94297619D01*
X140238095Y-94297619D02*
X140285714Y-94250000D01*
X140380952Y-94202380D01*
X140619047Y-94202380D01*
X140714285Y-94250000D01*
X140761904Y-94297619D01*
X140809523Y-94392857D01*
X140809523Y-94488095D01*
X140761904Y-94630952D01*
X140190476Y-95202380D01*
X140809523Y-95202380D01*
X141142857Y-94202380D02*
X141761904Y-94202380D01*
X141428571Y-94583333D01*
X141571428Y-94583333D01*
X141666666Y-94630952D01*
X141714285Y-94678571D01*
X141761904Y-94773809D01*
X141761904Y-95011904D01*
X141714285Y-95107142D01*
X141666666Y-95154761D01*
X141571428Y-95202380D01*
X141285714Y-95202380D01*
X141190476Y-95154761D01*
X141142857Y-95107142D01*
%TO.C,C22*%
X139857142Y-89857142D02*
X139809523Y-89904761D01*
X139666666Y-89952380D01*
X139571428Y-89952380D01*
X139428571Y-89904761D01*
X139333333Y-89809523D01*
X139285714Y-89714285D01*
X139238095Y-89523809D01*
X139238095Y-89380952D01*
X139285714Y-89190476D01*
X139333333Y-89095238D01*
X139428571Y-89000000D01*
X139571428Y-88952380D01*
X139666666Y-88952380D01*
X139809523Y-89000000D01*
X139857142Y-89047619D01*
X140238095Y-89047619D02*
X140285714Y-89000000D01*
X140380952Y-88952380D01*
X140619047Y-88952380D01*
X140714285Y-89000000D01*
X140761904Y-89047619D01*
X140809523Y-89142857D01*
X140809523Y-89238095D01*
X140761904Y-89380952D01*
X140190476Y-89952380D01*
X140809523Y-89952380D01*
X141190476Y-89047619D02*
X141238095Y-89000000D01*
X141333333Y-88952380D01*
X141571428Y-88952380D01*
X141666666Y-89000000D01*
X141714285Y-89047619D01*
X141761904Y-89142857D01*
X141761904Y-89238095D01*
X141714285Y-89380952D01*
X141142857Y-89952380D01*
X141761904Y-89952380D01*
%TO.C,C19*%
X139857142Y-85107142D02*
X139809523Y-85154761D01*
X139666666Y-85202380D01*
X139571428Y-85202380D01*
X139428571Y-85154761D01*
X139333333Y-85059523D01*
X139285714Y-84964285D01*
X139238095Y-84773809D01*
X139238095Y-84630952D01*
X139285714Y-84440476D01*
X139333333Y-84345238D01*
X139428571Y-84250000D01*
X139571428Y-84202380D01*
X139666666Y-84202380D01*
X139809523Y-84250000D01*
X139857142Y-84297619D01*
X140809523Y-85202380D02*
X140238095Y-85202380D01*
X140523809Y-85202380D02*
X140523809Y-84202380D01*
X140428571Y-84345238D01*
X140333333Y-84440476D01*
X140238095Y-84488095D01*
X141285714Y-85202380D02*
X141476190Y-85202380D01*
X141571428Y-85154761D01*
X141619047Y-85107142D01*
X141714285Y-84964285D01*
X141761904Y-84773809D01*
X141761904Y-84392857D01*
X141714285Y-84297619D01*
X141666666Y-84250000D01*
X141571428Y-84202380D01*
X141380952Y-84202380D01*
X141285714Y-84250000D01*
X141238095Y-84297619D01*
X141190476Y-84392857D01*
X141190476Y-84630952D01*
X141238095Y-84726190D01*
X141285714Y-84773809D01*
X141380952Y-84821428D01*
X141571428Y-84821428D01*
X141666666Y-84773809D01*
X141714285Y-84726190D01*
X141761904Y-84630952D01*
%TO.C,C18*%
X139857142Y-85607142D02*
X139809523Y-85654761D01*
X139666666Y-85702380D01*
X139571428Y-85702380D01*
X139428571Y-85654761D01*
X139333333Y-85559523D01*
X139285714Y-85464285D01*
X139238095Y-85273809D01*
X139238095Y-85130952D01*
X139285714Y-84940476D01*
X139333333Y-84845238D01*
X139428571Y-84750000D01*
X139571428Y-84702380D01*
X139666666Y-84702380D01*
X139809523Y-84750000D01*
X139857142Y-84797619D01*
X140809523Y-85702380D02*
X140238095Y-85702380D01*
X140523809Y-85702380D02*
X140523809Y-84702380D01*
X140428571Y-84845238D01*
X140333333Y-84940476D01*
X140238095Y-84988095D01*
X141380952Y-85130952D02*
X141285714Y-85083333D01*
X141238095Y-85035714D01*
X141190476Y-84940476D01*
X141190476Y-84892857D01*
X141238095Y-84797619D01*
X141285714Y-84750000D01*
X141380952Y-84702380D01*
X141571428Y-84702380D01*
X141666666Y-84750000D01*
X141714285Y-84797619D01*
X141761904Y-84892857D01*
X141761904Y-84940476D01*
X141714285Y-85035714D01*
X141666666Y-85083333D01*
X141571428Y-85130952D01*
X141380952Y-85130952D01*
X141285714Y-85178571D01*
X141238095Y-85226190D01*
X141190476Y-85321428D01*
X141190476Y-85511904D01*
X141238095Y-85607142D01*
X141285714Y-85654761D01*
X141380952Y-85702380D01*
X141571428Y-85702380D01*
X141666666Y-85654761D01*
X141714285Y-85607142D01*
X141761904Y-85511904D01*
X141761904Y-85321428D01*
X141714285Y-85226190D01*
X141666666Y-85178571D01*
X141571428Y-85130952D01*
%TO.C,C17*%
X106357142Y-88107142D02*
X106309523Y-88154761D01*
X106166666Y-88202380D01*
X106071428Y-88202380D01*
X105928571Y-88154761D01*
X105833333Y-88059523D01*
X105785714Y-87964285D01*
X105738095Y-87773809D01*
X105738095Y-87630952D01*
X105785714Y-87440476D01*
X105833333Y-87345238D01*
X105928571Y-87250000D01*
X106071428Y-87202380D01*
X106166666Y-87202380D01*
X106309523Y-87250000D01*
X106357142Y-87297619D01*
X107309523Y-88202380D02*
X106738095Y-88202380D01*
X107023809Y-88202380D02*
X107023809Y-87202380D01*
X106928571Y-87345238D01*
X106833333Y-87440476D01*
X106738095Y-87488095D01*
X107642857Y-87202380D02*
X108309523Y-87202380D01*
X107880952Y-88202380D01*
%TO.C,C16*%
X106607142Y-80857142D02*
X106559523Y-80904761D01*
X106416666Y-80952380D01*
X106321428Y-80952380D01*
X106178571Y-80904761D01*
X106083333Y-80809523D01*
X106035714Y-80714285D01*
X105988095Y-80523809D01*
X105988095Y-80380952D01*
X106035714Y-80190476D01*
X106083333Y-80095238D01*
X106178571Y-80000000D01*
X106321428Y-79952380D01*
X106416666Y-79952380D01*
X106559523Y-80000000D01*
X106607142Y-80047619D01*
X107559523Y-80952380D02*
X106988095Y-80952380D01*
X107273809Y-80952380D02*
X107273809Y-79952380D01*
X107178571Y-80095238D01*
X107083333Y-80190476D01*
X106988095Y-80238095D01*
X108416666Y-79952380D02*
X108226190Y-79952380D01*
X108130952Y-80000000D01*
X108083333Y-80047619D01*
X107988095Y-80190476D01*
X107940476Y-80380952D01*
X107940476Y-80761904D01*
X107988095Y-80857142D01*
X108035714Y-80904761D01*
X108130952Y-80952380D01*
X108321428Y-80952380D01*
X108416666Y-80904761D01*
X108464285Y-80857142D01*
X108511904Y-80761904D01*
X108511904Y-80523809D01*
X108464285Y-80428571D01*
X108416666Y-80380952D01*
X108321428Y-80333333D01*
X108130952Y-80333333D01*
X108035714Y-80380952D01*
X107988095Y-80428571D01*
X107940476Y-80523809D01*
%TO.C,C12*%
X184687142Y-44207142D02*
X184639523Y-44254761D01*
X184496666Y-44302380D01*
X184401428Y-44302380D01*
X184258571Y-44254761D01*
X184163333Y-44159523D01*
X184115714Y-44064285D01*
X184068095Y-43873809D01*
X184068095Y-43730952D01*
X184115714Y-43540476D01*
X184163333Y-43445238D01*
X184258571Y-43350000D01*
X184401428Y-43302380D01*
X184496666Y-43302380D01*
X184639523Y-43350000D01*
X184687142Y-43397619D01*
X185639523Y-44302380D02*
X185068095Y-44302380D01*
X185353809Y-44302380D02*
X185353809Y-43302380D01*
X185258571Y-43445238D01*
X185163333Y-43540476D01*
X185068095Y-43588095D01*
X186020476Y-43397619D02*
X186068095Y-43350000D01*
X186163333Y-43302380D01*
X186401428Y-43302380D01*
X186496666Y-43350000D01*
X186544285Y-43397619D01*
X186591904Y-43492857D01*
X186591904Y-43588095D01*
X186544285Y-43730952D01*
X185972857Y-44302380D01*
X186591904Y-44302380D01*
%TO.C,C8*%
X110836666Y-68792857D02*
X110884285Y-68745238D01*
X111027142Y-68697619D01*
X111122380Y-68697619D01*
X111265238Y-68745238D01*
X111360476Y-68840476D01*
X111408095Y-68935714D01*
X111455714Y-69126190D01*
X111455714Y-69269047D01*
X111408095Y-69459523D01*
X111360476Y-69554761D01*
X111265238Y-69650000D01*
X111122380Y-69697619D01*
X111027142Y-69697619D01*
X110884285Y-69650000D01*
X110836666Y-69602380D01*
X110265238Y-69269047D02*
X110360476Y-69316666D01*
X110408095Y-69364285D01*
X110455714Y-69459523D01*
X110455714Y-69507142D01*
X110408095Y-69602380D01*
X110360476Y-69650000D01*
X110265238Y-69697619D01*
X110074761Y-69697619D01*
X109979523Y-69650000D01*
X109931904Y-69602380D01*
X109884285Y-69507142D01*
X109884285Y-69459523D01*
X109931904Y-69364285D01*
X109979523Y-69316666D01*
X110074761Y-69269047D01*
X110265238Y-69269047D01*
X110360476Y-69221428D01*
X110408095Y-69173809D01*
X110455714Y-69078571D01*
X110455714Y-68888095D01*
X110408095Y-68792857D01*
X110360476Y-68745238D01*
X110265238Y-68697619D01*
X110074761Y-68697619D01*
X109979523Y-68745238D01*
X109931904Y-68792857D01*
X109884285Y-68888095D01*
X109884285Y-69078571D01*
X109931904Y-69173809D01*
X109979523Y-69221428D01*
X110074761Y-69269047D01*
D11*
%TO.C,U3*%
X166309500Y-127000000D02*
X151309500Y-127000000D01*
X166309500Y-114500000D02*
X151309500Y-114500000D01*
D12*
X151309500Y-127000000D02*
X151309500Y-114500000D01*
X166309500Y-127000000D02*
X166309500Y-114500000D01*
D13*
X163784500Y-127600000D02*
G75*
G03*
X163784500Y-127600000I-25000J0D01*
G01*
%TO.C,U5*%
X142165500Y-127600000D02*
G75*
G03*
X142165500Y-127600000I-25000J0D01*
G01*
D12*
X144690500Y-127000000D02*
X144690500Y-114500000D01*
X129690500Y-127000000D02*
X129690500Y-114500000D01*
D11*
X144690500Y-114500000D02*
X129690500Y-114500000D01*
X144690500Y-127000000D02*
X129690500Y-127000000D01*
D14*
%TO.C,C14*%
X168733332Y-56250000D02*
G75*
G03*
X168733332Y-56250000I-9125000J0D01*
G01*
%TO.C,C10*%
X145516666Y-56250000D02*
G75*
G03*
X145516666Y-56250000I-9125000J0D01*
G01*
D12*
%TO.C,R1*%
X152850000Y-95000000D02*
X152850000Y-97500000D01*
X152850000Y-97500000D02*
X159650000Y-97500000D01*
X152850000Y-95000000D02*
X159650000Y-95000000D01*
X159650000Y-95000000D02*
X159650000Y-97500000D01*
%TO.C,C24*%
X183443250Y-84750000D02*
G75*
G03*
X183443250Y-84750000I-5000000J0D01*
G01*
D15*
X172793250Y-84750000D02*
G75*
G03*
X172793250Y-84750000I-100000J0D01*
G01*
%TO.C,C21*%
X160100000Y-84750000D02*
G75*
G03*
X160100000Y-84750000I-100000J0D01*
G01*
D12*
X170750000Y-84750000D02*
G75*
G03*
X170750000Y-84750000I-5000000J0D01*
G01*
D15*
%TO.C,C20*%
X159406750Y-84750000D02*
G75*
G03*
X159406750Y-84750000I-100000J0D01*
G01*
D12*
X158556750Y-84750000D02*
G75*
G03*
X158556750Y-84750000I-5000000J0D01*
G01*
D11*
%TO.C,U2*%
X123075000Y-125281653D02*
X112925000Y-125281653D01*
X112925000Y-125281653D02*
X112925000Y-116389653D01*
X112925000Y-116389653D02*
X123075000Y-116389653D01*
X123075000Y-116389653D02*
X123075000Y-125281653D01*
D15*
X120642195Y-125789653D02*
G75*
G03*
X120642195Y-125789653I-92195J0D01*
G01*
D11*
%TO.C,U6*%
X183075000Y-125281653D02*
X172925000Y-125281653D01*
X172925000Y-125281653D02*
X172925000Y-116389653D01*
X172925000Y-116389653D02*
X183075000Y-116389653D01*
X183075000Y-116389653D02*
X183075000Y-125281653D01*
D15*
X180642195Y-125789653D02*
G75*
G03*
X180642195Y-125789653I-92195J0D01*
G01*
D11*
%TO.C,U45*%
X176399000Y-106075000D02*
X176399000Y-104565000D01*
X180100000Y-106075000D02*
X180100000Y-104565000D01*
X183370000Y-104565000D02*
X173130000Y-104565000D01*
X173130000Y-106075000D02*
X173130000Y-101434000D01*
X183370000Y-106075000D02*
X183370000Y-101434000D01*
X183370000Y-101434000D02*
X173130000Y-101434000D01*
X183370000Y-106075000D02*
X173130000Y-106075000D01*
%TO.C,U41*%
X178580000Y-73770000D02*
X168340000Y-73770000D01*
X178580000Y-69129000D02*
X168340000Y-69129000D01*
X178580000Y-73770000D02*
X178580000Y-69129000D01*
X168340000Y-73770000D02*
X168340000Y-69129000D01*
X178580000Y-72260000D02*
X168340000Y-72260000D01*
X175310000Y-73770000D02*
X175310000Y-72260000D01*
X171609000Y-73770000D02*
X171609000Y-72260000D01*
%TO.C,U40*%
X128580000Y-73770000D02*
X118340000Y-73770000D01*
X128580000Y-69129000D02*
X118340000Y-69129000D01*
X128580000Y-73770000D02*
X128580000Y-69129000D01*
X118340000Y-73770000D02*
X118340000Y-69129000D01*
X128580000Y-72260000D02*
X118340000Y-72260000D01*
X125310000Y-73770000D02*
X125310000Y-72260000D01*
X121609000Y-73770000D02*
X121609000Y-72260000D01*
%TO.C,U39*%
X154942332Y-73770000D02*
X154942332Y-72260000D01*
X158643332Y-73770000D02*
X158643332Y-72260000D01*
X161913332Y-72260000D02*
X151673332Y-72260000D01*
X151673332Y-73770000D02*
X151673332Y-69129000D01*
X161913332Y-73770000D02*
X161913332Y-69129000D01*
X161913332Y-69129000D02*
X151673332Y-69129000D01*
X161913332Y-73770000D02*
X151673332Y-73770000D01*
%TO.C,U35*%
X138275666Y-73770000D02*
X138275666Y-72260000D01*
X141976666Y-73770000D02*
X141976666Y-72260000D01*
X145246666Y-72260000D02*
X135006666Y-72260000D01*
X135006666Y-73770000D02*
X135006666Y-69129000D01*
X145246666Y-73770000D02*
X145246666Y-69129000D01*
X145246666Y-69129000D02*
X135006666Y-69129000D01*
X145246666Y-73770000D02*
X135006666Y-73770000D01*
%TO.C,U4*%
X122609000Y-106075000D02*
X122609000Y-104565000D01*
X126310000Y-106075000D02*
X126310000Y-104565000D01*
X129580000Y-104565000D02*
X119340000Y-104565000D01*
X119340000Y-106075000D02*
X119340000Y-101434000D01*
X129580000Y-106075000D02*
X129580000Y-101434000D01*
X129580000Y-101434000D02*
X119340000Y-101434000D01*
X129580000Y-106075000D02*
X119340000Y-106075000D01*
%TO.C,U1*%
X115500000Y-27250000D02*
X130500000Y-27250000D01*
X115500000Y-39750000D02*
X130500000Y-39750000D01*
D12*
X130500000Y-27250000D02*
X130500000Y-39750000D01*
X115500000Y-27250000D02*
X115500000Y-39750000D01*
D13*
X118075000Y-26650000D02*
G75*
G03*
X118075000Y-26650000I-25000J0D01*
G01*
D11*
%TO.C,Q1*%
X156359000Y-106075000D02*
X156359000Y-104565000D01*
X160060000Y-106075000D02*
X160060000Y-104565000D01*
X163330000Y-104565000D02*
X153090000Y-104565000D01*
X153090000Y-106075000D02*
X153090000Y-101434000D01*
X163330000Y-106075000D02*
X163330000Y-101434000D01*
X163330000Y-101434000D02*
X153090000Y-101434000D01*
X163330000Y-106075000D02*
X153090000Y-106075000D01*
%TO.C,D2*%
X155700000Y-43750000D02*
X142100000Y-43750000D01*
X155700000Y-28350000D02*
X155700000Y-43750000D01*
X140300000Y-28350000D02*
X155700000Y-28350000D01*
X140300000Y-41950000D02*
X140300000Y-28350000D01*
X141050000Y-42700000D02*
X140300000Y-41950000D01*
X142100000Y-43750000D02*
X141350000Y-43000000D01*
%TO.C,D1*%
X166580000Y-95110000D02*
X166580000Y-94780000D01*
X166580000Y-94780000D02*
X172020000Y-94780000D01*
X172020000Y-94780000D02*
X172020000Y-95110000D01*
X166580000Y-97390000D02*
X166580000Y-97720000D01*
X166580000Y-97720000D02*
X172020000Y-97720000D01*
X172020000Y-97720000D02*
X172020000Y-97390000D01*
X167480000Y-94780000D02*
X167480000Y-97720000D01*
X167600000Y-94780000D02*
X167600000Y-97720000D01*
X167360000Y-94780000D02*
X167360000Y-97720000D01*
D15*
%TO.C,C27*%
X117100000Y-85000000D02*
G75*
G03*
X117100000Y-85000000I-100000J0D01*
G01*
D12*
X127750000Y-85000000D02*
G75*
G03*
X127750000Y-85000000I-5000000J0D01*
G01*
D11*
%TO.C,C26*%
X176130000Y-94880000D02*
X183870000Y-94880000D01*
X176130000Y-97620000D02*
X183870000Y-97620000D01*
X176130000Y-94880000D02*
X176130000Y-97620000D01*
X183870000Y-94880000D02*
X183870000Y-97620000D01*
D15*
%TO.C,C25*%
X184543250Y-84750000D02*
G75*
G03*
X184543250Y-84750000I-100000J0D01*
G01*
D12*
X195193250Y-84750000D02*
G75*
G03*
X195193250Y-84750000I-5000000J0D01*
G01*
D11*
%TO.C,C23*%
X144370000Y-95880000D02*
X144370000Y-98620000D01*
X136630000Y-95880000D02*
X136630000Y-98620000D01*
X136630000Y-98620000D02*
X144370000Y-98620000D01*
X136630000Y-95880000D02*
X144370000Y-95880000D01*
%TO.C,C22*%
X144370000Y-90630000D02*
X144370000Y-93370000D01*
X136630000Y-90630000D02*
X136630000Y-93370000D01*
X136630000Y-93370000D02*
X144370000Y-93370000D01*
X136630000Y-90630000D02*
X144370000Y-90630000D01*
%TO.C,C19*%
X144370000Y-85880000D02*
X144370000Y-88620000D01*
X136630000Y-85880000D02*
X136630000Y-88620000D01*
X136630000Y-88620000D02*
X144370000Y-88620000D01*
X136630000Y-85880000D02*
X144370000Y-85880000D01*
%TO.C,C18*%
X144370000Y-84120000D02*
X136630000Y-84120000D01*
X144370000Y-81380000D02*
X136630000Y-81380000D01*
X144370000Y-84120000D02*
X144370000Y-81380000D01*
X136630000Y-84120000D02*
X136630000Y-81380000D01*
%TO.C,C17*%
X110870000Y-88880000D02*
X110870000Y-91620000D01*
X103130000Y-88880000D02*
X103130000Y-91620000D01*
X103130000Y-91620000D02*
X110870000Y-91620000D01*
X103130000Y-88880000D02*
X110870000Y-88880000D01*
%TO.C,C16*%
X103380000Y-81630000D02*
X111120000Y-81630000D01*
X103380000Y-84370000D02*
X111120000Y-84370000D01*
X103380000Y-81630000D02*
X103380000Y-84370000D01*
X111120000Y-81630000D02*
X111120000Y-84370000D01*
D15*
%TO.C,C12*%
X196250000Y-56500000D02*
G75*
G03*
X196250000Y-56500000I-11250000J0D01*
G01*
%TO.C,C8*%
X122250000Y-56500000D02*
G75*
G03*
X122250000Y-56500000I-11250000J0D01*
G01*
%TD*%
M02*
