M48
; DRILL file {KiCad (6.0.0)} date Fri Feb 11 12:52:55 2022
; FORMAT={-:-/ absolute / inch / decimal}
; #@! TF.CreationDate,2022-02-11T12:52:55-03:00
; #@! TF.GenerationSoftware,Kicad,Pcbnew,(6.0.0)
; #@! TF.FileFunction,Plated,1,2,PTH
FMAT,2
INCH
; #@! TA.AperFunction,Plated,PTH,ComponentDrill
T1C0.0197
; #@! TA.AperFunction,Plated,PTH,ViaDrill
T2C0.0276
; #@! TA.AperFunction,Plated,PTH,ComponentDrill
T3C0.0311
; #@! TA.AperFunction,Plated,PTH,ComponentDrill
T4C0.0335
; #@! TA.AperFunction,Plated,PTH,ComponentDrill
T5C0.0354
; #@! TA.AperFunction,Plated,PTH,ComponentDrill
T6C0.0394
; #@! TA.AperFunction,Plated,PTH,ComponentDrill
T7C0.0433
; #@! TA.AperFunction,Plated,PTH,ComponentDrill
T8C0.0472
; #@! TA.AperFunction,Plated,PTH,ComponentDrill
T9C0.0551
; #@! TA.AperFunction,Plated,PTH,ComponentDrill
T10C0.0827
; #@! TA.AperFunction,Plated,PTH,ComponentDrill
T11C0.1260
%
G90
G05
T1
X4.0Y-1.3602
X4.0Y-4.7835
X4.0277Y-1.2934
X4.0277Y-1.427
X4.0277Y-4.7167
X4.0277Y-4.8503
X4.0945Y-1.2657
X4.0945Y-1.4547
X4.0945Y-4.689
X4.0945Y-4.878
X4.1613Y-1.2934
X4.1613Y-1.427
X4.1613Y-4.7167
X4.1613Y-4.8503
X4.189Y-1.3602
X4.189Y-4.7835
X7.4133Y-4.7835
X7.4252Y-1.3602
X7.4409Y-4.7167
X7.4409Y-4.8503
X7.4529Y-1.2934
X7.4529Y-1.427
X7.5078Y-4.689
X7.5078Y-4.878
X7.5197Y-1.2657
X7.5197Y-1.4547
X7.5746Y-4.7167
X7.5746Y-4.8503
X7.5865Y-1.2934
X7.5865Y-1.427
X7.6022Y-4.7835
X7.6142Y-1.3602
T2
X5.062Y-4.2175
X5.1575Y-3.6811
X5.2362Y-3.9567
X5.9764Y-4.2185
X6.0512Y-2.94
X6.3504Y-2.937
X6.6772Y-3.9134
X6.689Y-4.1732
X6.9331Y-4.5315
X7.1575Y-4.3701
T3
X5.9364Y-3.7894
X6.3667Y-3.7894
T4
X4.7343Y-3.3465
X4.9311Y-3.3465
X5.9471Y-3.3366
X6.144Y-3.3366
X6.4272Y-3.3366
X6.624Y-3.3366
X6.9269Y-3.3366
X7.1238Y-3.3366
X7.3895Y-3.3366
X7.5863Y-3.3366
T5
X6.5154Y-3.7894
X6.8154Y-3.7894
T6
X4.1142Y-3.5531
X4.124Y-3.2677
X4.311Y-3.5531
X4.3209Y-3.2677
X5.4331Y-3.2579
X5.4331Y-3.435
X5.4331Y-3.622
X5.4331Y-3.8287
X5.6299Y-3.2579
X5.6299Y-3.435
X5.6299Y-3.622
X5.6299Y-3.8287
X6.9882Y-3.7894
X7.185Y-3.7894
T7
X4.7606Y-2.7756
X4.8Y-4.0474
X4.8606Y-2.7756
X4.9Y-4.0474
X4.9606Y-2.7756
X5.0Y-4.0474
X5.3698Y-2.0669
X5.3698Y-2.3622
X5.4168Y-2.7756
X5.5168Y-2.7756
X5.6168Y-2.7756
X6.073Y-2.7756
X6.1287Y-4.0474
X6.173Y-2.7756
X6.2287Y-4.0474
X6.273Y-2.7756
X6.2838Y-2.0669
X6.2838Y-2.3622
X6.3287Y-4.0474
X6.7291Y-2.7756
X6.8291Y-2.7756
X6.9177Y-4.0474
X6.9291Y-2.7756
X7.0177Y-4.0474
X7.1177Y-4.0474
T8
X5.6122Y-1.3012
X5.6122Y-1.7303
X6.0413Y-1.3012
X6.0413Y-1.7264
T9
X4.5457Y-4.8023
X4.6457Y-1.3976
X4.7457Y-4.8023
X4.8425Y-1.3976
X5.0394Y-1.3976
X5.2044Y-4.7539
X5.4012Y-4.7539
X5.5981Y-4.7539
X6.0555Y-4.7539
X6.2523Y-4.7539
X6.4492Y-4.7539
X6.9079Y-4.8023
X7.1079Y-4.8023
T10
X4.1732Y-2.2244
X4.5669Y-2.2244
X7.0866Y-2.2244
X7.4803Y-2.2244
T11
X4.0945Y-1.3602
X4.0945Y-4.7835
X7.5078Y-4.7835
X7.5197Y-1.3602
T0
M30
