%TF.GenerationSoftware,KiCad,Pcbnew,(6.0.0)*%
%TF.CreationDate,2022-01-23T17:01:15-03:00*%
%TF.ProjectId,Circuito fuente,43697263-7569-4746-9f20-6675656e7465,V02*%
%TF.SameCoordinates,Original*%
%TF.FileFunction,Soldermask,Top*%
%TF.FilePolarity,Negative*%
%FSLAX46Y46*%
G04 Gerber Fmt 4.6, Leading zero omitted, Abs format (unit mm)*
G04 Created by KiCad (PCBNEW (6.0.0)) date 2022-01-23 17:01:15*
%MOMM*%
%LPD*%
G01*
G04 APERTURE LIST*
G04 Aperture macros list*
%AMRoundRect*
0 Rectangle with rounded corners*
0 $1 Rounding radius*
0 $2 $3 $4 $5 $6 $7 $8 $9 X,Y pos of 4 corners*
0 Add a 4 corners polygon primitive as box body*
4,1,4,$2,$3,$4,$5,$6,$7,$8,$9,$2,$3,0*
0 Add four circle primitives for the rounded corners*
1,1,$1+$1,$2,$3*
1,1,$1+$1,$4,$5*
1,1,$1+$1,$6,$7*
1,1,$1+$1,$8,$9*
0 Add four rect primitives between the rounded corners*
20,1,$1+$1,$2,$3,$4,$5,0*
20,1,$1+$1,$4,$5,$6,$7,0*
20,1,$1+$1,$6,$7,$8,$9,0*
20,1,$1+$1,$8,$9,$2,$3,0*%
G04 Aperture macros list end*
%ADD10RoundRect,0.050800X1.050000X1.050000X-1.050000X1.050000X-1.050000X-1.050000X1.050000X-1.050000X0*%
%ADD11C,2.201600*%
%ADD12RoundRect,0.050800X0.825000X-0.825000X0.825000X0.825000X-0.825000X0.825000X-0.825000X-0.825000X0*%
%ADD13C,1.751600*%
%ADD14RoundRect,0.050800X-0.825000X0.825000X-0.825000X-0.825000X0.825000X-0.825000X0.825000X0.825000X0*%
%ADD15C,1.291600*%
%ADD16RoundRect,0.050800X-0.600000X-0.600000X0.600000X-0.600000X0.600000X0.600000X-0.600000X0.600000X0*%
%ADD17C,1.301600*%
%ADD18RoundRect,0.050800X0.600000X0.600000X-0.600000X0.600000X-0.600000X-0.600000X0.600000X-0.600000X0*%
%ADD19O,2.006600X2.101600*%
%ADD20RoundRect,0.050800X0.952500X1.000000X-0.952500X1.000000X-0.952500X-1.000000X0.952500X-1.000000X0*%
%ADD21RoundRect,0.050800X-1.050000X-1.050000X1.050000X-1.050000X1.050000X1.050000X-1.050000X1.050000X0*%
%ADD22C,6.501600*%
%ADD23C,0.901600*%
%ADD24C,2.501600*%
%ADD25RoundRect,0.050800X-1.200000X1.200000X-1.200000X-1.200000X1.200000X-1.200000X1.200000X1.200000X0*%
%ADD26RoundRect,0.050800X-0.900000X-0.900000X0.900000X-0.900000X0.900000X0.900000X-0.900000X0.900000X0*%
%ADD27O,1.901600X1.901600*%
%ADD28C,2.101600*%
%ADD29RoundRect,0.050800X-1.575000X-1.575000X1.575000X-1.575000X1.575000X1.575000X-1.575000X1.575000X0*%
%ADD30C,3.251600*%
%ADD31RoundRect,0.050800X1.575000X1.575000X-1.575000X1.575000X-1.575000X-1.575000X1.575000X-1.575000X0*%
G04 APERTURE END LIST*
D10*
%TO.C,U3*%
X163809500Y-120750000D03*
D11*
X158809500Y-120750000D03*
X153809500Y-120750000D03*
%TD*%
%TO.C,U5*%
X132190500Y-120750000D03*
X137190500Y-120750000D03*
D10*
X142190500Y-120750000D03*
%TD*%
D12*
%TO.C,C14*%
X159608332Y-60000000D03*
D13*
X159608332Y-52500000D03*
%TD*%
D14*
%TO.C,C10*%
X136391666Y-52500000D03*
D13*
X136391666Y-60000000D03*
%TD*%
D15*
%TO.C,R1*%
X150785000Y-96250000D03*
X161715000Y-96250000D03*
%TD*%
D16*
%TO.C,C24*%
X175943250Y-84750000D03*
D17*
X180943250Y-84750000D03*
%TD*%
%TO.C,C21*%
X168250000Y-84750000D03*
D16*
X163250000Y-84750000D03*
%TD*%
D17*
%TO.C,C20*%
X151056750Y-84750000D03*
D18*
X156056750Y-84750000D03*
%TD*%
D10*
%TO.C,U2*%
X120540000Y-121979653D03*
D11*
X115460000Y-121979653D03*
%TD*%
D10*
%TO.C,U6*%
X180540000Y-121979653D03*
D11*
X175460000Y-121979653D03*
%TD*%
D19*
%TO.C,U45*%
X175710000Y-102805000D03*
X178250000Y-102805000D03*
D20*
X180790000Y-102805000D03*
%TD*%
%TO.C,U41*%
X176000000Y-70500000D03*
D19*
X173460000Y-70500000D03*
X170920000Y-70500000D03*
%TD*%
D20*
%TO.C,U40*%
X126000000Y-70500000D03*
D19*
X123460000Y-70500000D03*
X120920000Y-70500000D03*
%TD*%
%TO.C,U39*%
X154253332Y-70500000D03*
X156793332Y-70500000D03*
D20*
X159333332Y-70500000D03*
%TD*%
D19*
%TO.C,U35*%
X137586666Y-70500000D03*
X140126666Y-70500000D03*
D20*
X142666666Y-70500000D03*
%TD*%
D19*
%TO.C,U4*%
X121920000Y-102805000D03*
X124460000Y-102805000D03*
D20*
X127000000Y-102805000D03*
%TD*%
D21*
%TO.C,U1*%
X118000000Y-33500000D03*
D11*
X123000000Y-33500000D03*
X128000000Y-33500000D03*
%TD*%
D19*
%TO.C,Q1*%
X155670000Y-102805000D03*
X158210000Y-102805000D03*
D20*
X160750000Y-102805000D03*
%TD*%
D22*
%TO.C,H4*%
X104000000Y-33550000D03*
D23*
X106400000Y-33550000D03*
X105697056Y-35247056D03*
X104000000Y-35950000D03*
X102302944Y-35247056D03*
X101600000Y-33550000D03*
X102302944Y-31852944D03*
X104000000Y-31150000D03*
X105697056Y-31852944D03*
%TD*%
D22*
%TO.C,H3*%
X192000000Y-33550000D03*
D23*
X194400000Y-33550000D03*
X193697056Y-35247056D03*
X192000000Y-35950000D03*
X190302944Y-35247056D03*
X189600000Y-33550000D03*
X190302944Y-31852944D03*
X192000000Y-31150000D03*
X193697056Y-31852944D03*
%TD*%
D22*
%TO.C,H2*%
X192000000Y-121500000D03*
D23*
X194400000Y-121500000D03*
X193697056Y-123197056D03*
X192000000Y-123900000D03*
X190302944Y-123197056D03*
X189600000Y-121500000D03*
X190302944Y-119802944D03*
X192000000Y-119100000D03*
X193697056Y-119802944D03*
%TD*%
D22*
%TO.C,H1*%
X104000000Y-121500000D03*
D23*
X106400000Y-121500000D03*
X105697056Y-123197056D03*
X104000000Y-123900000D03*
X102302944Y-123197056D03*
X101600000Y-121500000D03*
X102302944Y-119802944D03*
X104000000Y-119100000D03*
X105697056Y-119802944D03*
%TD*%
D24*
%TO.C,D2*%
X153450000Y-30600000D03*
X142550000Y-30600000D03*
D25*
X142550000Y-41500000D03*
D24*
X153450000Y-41400000D03*
%TD*%
D26*
%TO.C,D1*%
X165490000Y-96250000D03*
D27*
X173110000Y-96250000D03*
%TD*%
D17*
%TO.C,C27*%
X125250000Y-85000000D03*
D16*
X120250000Y-85000000D03*
%TD*%
D28*
%TO.C,C26*%
X177500000Y-96250000D03*
X182500000Y-96250000D03*
%TD*%
D17*
%TO.C,C25*%
X192693250Y-84750000D03*
D16*
X187693250Y-84750000D03*
%TD*%
D28*
%TO.C,C23*%
X143000000Y-97250000D03*
X138000000Y-97250000D03*
%TD*%
%TO.C,C22*%
X143000000Y-92000000D03*
X138000000Y-92000000D03*
%TD*%
%TO.C,C19*%
X143000000Y-87250000D03*
X138000000Y-87250000D03*
%TD*%
%TO.C,C18*%
X143000000Y-82750000D03*
X138000000Y-82750000D03*
%TD*%
%TO.C,C17*%
X109500000Y-90250000D03*
X104500000Y-90250000D03*
%TD*%
%TO.C,C16*%
X104750000Y-83000000D03*
X109750000Y-83000000D03*
%TD*%
D29*
%TO.C,C12*%
X180000000Y-56500000D03*
D30*
X190000000Y-56500000D03*
%TD*%
D31*
%TO.C,C8*%
X116000000Y-56500000D03*
D30*
X106000000Y-56500000D03*
%TD*%
M02*
