%TF.GenerationSoftware,KiCad,Pcbnew,(6.0.0)*%
%TF.CreationDate,2022-02-11T12:52:58-03:00*%
%TF.ProjectId,Circuito fuente,43697263-7569-4746-9f20-6675656e7465,V02*%
%TF.SameCoordinates,Original*%
%TF.FileFunction,Copper,L1,Top*%
%TF.FilePolarity,Positive*%
%FSLAX46Y46*%
G04 Gerber Fmt 4.6, Leading zero omitted, Abs format (unit mm)*
G04 Created by KiCad (PCBNEW (6.0.0)) date 2022-02-11 12:52:58*
%MOMM*%
%LPD*%
G01*
G04 APERTURE LIST*
%TA.AperFunction,ComponentPad*%
%ADD10C,2.000000*%
%TD*%
%TA.AperFunction,ComponentPad*%
%ADD11R,1.905000X2.000000*%
%TD*%
%TA.AperFunction,ComponentPad*%
%ADD12O,1.905000X2.000000*%
%TD*%
%TA.AperFunction,ComponentPad*%
%ADD13R,1.650000X1.650000*%
%TD*%
%TA.AperFunction,ComponentPad*%
%ADD14C,1.650000*%
%TD*%
%TA.AperFunction,ComponentPad*%
%ADD15C,0.800000*%
%TD*%
%TA.AperFunction,ComponentPad*%
%ADD16C,6.400000*%
%TD*%
%TA.AperFunction,ComponentPad*%
%ADD17R,1.200000X1.200000*%
%TD*%
%TA.AperFunction,ComponentPad*%
%ADD18C,1.200000*%
%TD*%
%TA.AperFunction,ComponentPad*%
%ADD19R,2.100000X2.100000*%
%TD*%
%TA.AperFunction,ComponentPad*%
%ADD20C,2.100000*%
%TD*%
%TA.AperFunction,ComponentPad*%
%ADD21R,1.800000X1.800000*%
%TD*%
%TA.AperFunction,ComponentPad*%
%ADD22O,1.800000X1.800000*%
%TD*%
%TA.AperFunction,ComponentPad*%
%ADD23C,1.190000*%
%TD*%
%TA.AperFunction,ComponentPad*%
%ADD24R,2.400000X2.400000*%
%TD*%
%TA.AperFunction,ComponentPad*%
%ADD25C,2.400000*%
%TD*%
%TA.AperFunction,ComponentPad*%
%ADD26R,3.150000X3.150000*%
%TD*%
%TA.AperFunction,ComponentPad*%
%ADD27C,3.150000*%
%TD*%
%TA.AperFunction,ViaPad*%
%ADD28C,1.000000*%
%TD*%
G04 APERTURE END LIST*
D10*
%TO.P,C23,1,1*%
%TO.N,/+5V*%
X138000000Y-97250000D03*
%TO.P,C23,2,2*%
%TO.N,GND*%
X143000000Y-97250000D03*
%TD*%
D11*
%TO.P,Q1,1,B*%
%TO.N,Net-(D1-Pad1)*%
X160750000Y-102805000D03*
D12*
%TO.P,Q1,2,C*%
%TO.N,/+15DC*%
X158210000Y-102805000D03*
%TO.P,Q1,3,E*%
%TO.N,Net-(C26-Pad1)*%
X155670000Y-102805000D03*
%TD*%
D13*
%TO.P,C14,1*%
%TO.N,GND*%
X159608332Y-60000000D03*
D14*
%TO.P,C14,2*%
%TO.N,Net-(C12-Pad2)*%
X159608332Y-52500000D03*
%TD*%
D11*
%TO.P,U41,1,GND*%
%TO.N,GND*%
X176000000Y-70500000D03*
D12*
%TO.P,U41,2,VI*%
%TO.N,/-12V*%
X173460000Y-70500000D03*
%TO.P,U41,3,VO*%
%TO.N,/-5V*%
X170920000Y-70500000D03*
%TD*%
D15*
%TO.P,H2,1*%
%TO.N,N/C*%
X192394112Y-119802944D03*
D16*
X190697056Y-121500000D03*
D15*
X190697056Y-123900000D03*
X193097056Y-121500000D03*
X192394112Y-123197056D03*
X188297056Y-121500000D03*
X189000000Y-123197056D03*
X189000000Y-119802944D03*
X190697056Y-119100000D03*
%TD*%
D17*
%TO.P,C21,1*%
%TO.N,GND*%
X163250000Y-84750000D03*
D18*
%TO.P,C21,2*%
%TO.N,/-12V*%
X168250000Y-84750000D03*
%TD*%
D10*
%TO.P,C22,1,1*%
%TO.N,/+12V1*%
X138000000Y-92000000D03*
%TO.P,C22,2,2*%
%TO.N,GND*%
X143000000Y-92000000D03*
%TD*%
D19*
%TO.P,U1,1*%
%TO.N,/-15VAC*%
X118000000Y-35500000D03*
D20*
%TO.P,U1,2*%
%TO.N,GND*%
X123000000Y-35500000D03*
%TO.P,U1,3*%
%TO.N,/+15VAC*%
X128000000Y-35500000D03*
%TD*%
D10*
%TO.P,C17,1,1*%
%TO.N,/+12V2*%
X104500000Y-90250000D03*
%TO.P,C17,2,2*%
%TO.N,GND*%
X109500000Y-90250000D03*
%TD*%
D20*
%TO.P,U5,1*%
%TO.N,/+5V*%
X132190500Y-120750000D03*
%TO.P,U5,2*%
%TO.N,GND*%
X137190500Y-120750000D03*
D19*
%TO.P,U5,3*%
%TO.N,/-5V*%
X142190500Y-120750000D03*
%TD*%
D17*
%TO.P,C25,1*%
%TO.N,GND*%
X187693250Y-84750000D03*
D18*
%TO.P,C25,2*%
%TO.N,/-5V*%
X192693250Y-84750000D03*
%TD*%
D11*
%TO.P,U40,1,VI*%
%TO.N,/+12V1*%
X126000000Y-70500000D03*
D12*
%TO.P,U40,2,GND*%
%TO.N,GND*%
X123460000Y-70500000D03*
%TO.P,U40,3,VO*%
%TO.N,/+5V*%
X120920000Y-70500000D03*
%TD*%
D10*
%TO.P,C26,1,1*%
%TO.N,Net-(C26-Pad1)*%
X177500000Y-96250000D03*
%TO.P,C26,2,2*%
%TO.N,GND*%
X182500000Y-96250000D03*
%TD*%
D15*
%TO.P,H1,1*%
%TO.N,N/C*%
X101600000Y-121500000D03*
X102302944Y-119802944D03*
D16*
X104000000Y-121500000D03*
D15*
X105697056Y-123197056D03*
X106400000Y-121500000D03*
X104000000Y-123900000D03*
X105697056Y-119802944D03*
X102302944Y-123197056D03*
X104000000Y-119100000D03*
%TD*%
D21*
%TO.P,D1,1,K*%
%TO.N,Net-(D1-Pad1)*%
X165490000Y-96250000D03*
D22*
%TO.P,D1,2,A*%
%TO.N,GND*%
X173110000Y-96250000D03*
%TD*%
D23*
%TO.P,R1,1*%
%TO.N,/+15DC*%
X150785000Y-96250000D03*
%TO.P,R1,2*%
%TO.N,Net-(D1-Pad1)*%
X161715000Y-96250000D03*
%TD*%
D11*
%TO.P,U39,1,GND*%
%TO.N,GND*%
X159333332Y-70500000D03*
D12*
%TO.P,U39,2,VI*%
%TO.N,Net-(C12-Pad2)*%
X156793332Y-70500000D03*
%TO.P,U39,3,VO*%
%TO.N,/-12V*%
X154253332Y-70500000D03*
%TD*%
D11*
%TO.P,U45,1,GND*%
%TO.N,GND*%
X180790000Y-102805000D03*
D12*
%TO.P,U45,2,VO*%
%TO.N,/+3\u002C3V*%
X178250000Y-102805000D03*
%TO.P,U45,3,VI*%
%TO.N,Net-(C26-Pad1)*%
X175710000Y-102805000D03*
%TD*%
D19*
%TO.P,U6,1*%
%TO.N,/+3\u002C3V*%
X180540000Y-121979653D03*
D20*
%TO.P,U6,2*%
%TO.N,GND*%
X175460000Y-121979653D03*
%TD*%
D10*
%TO.P,C19,1,1*%
%TO.N,/+12V1*%
X138000000Y-87250000D03*
%TO.P,C19,2,2*%
%TO.N,GND*%
X143000000Y-87250000D03*
%TD*%
D17*
%TO.P,C27,1*%
%TO.N,/+3\u002C3V*%
X120250000Y-85000000D03*
D18*
%TO.P,C27,2*%
%TO.N,GND*%
X125250000Y-85000000D03*
%TD*%
D19*
%TO.P,U2,1*%
%TO.N,/+12V2*%
X120540000Y-121979653D03*
D20*
%TO.P,U2,2*%
%TO.N,GND*%
X115460000Y-121979653D03*
%TD*%
D15*
%TO.P,H3,1*%
%TO.N,N/C*%
X189302944Y-36247056D03*
X189302944Y-32852944D03*
X193400000Y-34550000D03*
X191000000Y-32150000D03*
X188600000Y-34550000D03*
X191000000Y-36950000D03*
D16*
X191000000Y-34550000D03*
D15*
X192697056Y-32852944D03*
X192697056Y-36247056D03*
%TD*%
D13*
%TO.P,C10,1*%
%TO.N,/+15DC*%
X136391666Y-52500000D03*
D14*
%TO.P,C10,2*%
%TO.N,GND*%
X136391666Y-60000000D03*
%TD*%
D11*
%TO.P,U4,1,VI*%
%TO.N,/+15DC*%
X127000000Y-102805000D03*
D12*
%TO.P,U4,2,GND*%
%TO.N,GND*%
X124460000Y-102805000D03*
%TO.P,U4,3,VO*%
%TO.N,/+12V2*%
X121920000Y-102805000D03*
%TD*%
D10*
%TO.P,C16,1,1*%
%TO.N,/+15DC*%
X104750000Y-83000000D03*
%TO.P,C16,2,2*%
%TO.N,GND*%
X109750000Y-83000000D03*
%TD*%
D24*
%TO.P,D2,1,+*%
%TO.N,/+15DC*%
X142550000Y-43950000D03*
D25*
%TO.P,D2,2,-*%
%TO.N,Net-(C12-Pad2)*%
X153450000Y-43850000D03*
%TO.P,D2,3*%
%TO.N,/+15VAC*%
X153450000Y-33050000D03*
%TO.P,D2,4*%
%TO.N,/-15VAC*%
X142550000Y-33050000D03*
%TD*%
D26*
%TO.P,C12,1*%
%TO.N,GND*%
X180000000Y-56500000D03*
D27*
%TO.P,C12,2*%
%TO.N,Net-(C12-Pad2)*%
X190000000Y-56500000D03*
%TD*%
D17*
%TO.P,C24,1*%
%TO.N,GND*%
X175943250Y-84750000D03*
D18*
%TO.P,C24,2*%
%TO.N,/-12V*%
X180943250Y-84750000D03*
%TD*%
D15*
%TO.P,H4,1*%
%TO.N,N/C*%
X105697056Y-36247056D03*
X104000000Y-36950000D03*
X101600000Y-34550000D03*
X105697056Y-32852944D03*
X104000000Y-32150000D03*
X106400000Y-34550000D03*
X102302944Y-32852944D03*
X102302944Y-36247056D03*
D16*
X104000000Y-34550000D03*
%TD*%
D20*
%TO.P,U3,1*%
%TO.N,/+12V1*%
X153809500Y-120750000D03*
%TO.P,U3,2*%
%TO.N,GND*%
X158809500Y-120750000D03*
D19*
%TO.P,U3,3*%
%TO.N,/-12V*%
X163809500Y-120750000D03*
%TD*%
D10*
%TO.P,C18,1,1*%
%TO.N,/+15DC*%
X143000000Y-82750000D03*
%TO.P,C18,2,2*%
%TO.N,GND*%
X138000000Y-82750000D03*
%TD*%
D11*
%TO.P,U35,1,VI*%
%TO.N,/+15DC*%
X142666666Y-70500000D03*
D12*
%TO.P,U35,2,GND*%
%TO.N,GND*%
X140126666Y-70500000D03*
%TO.P,U35,3,VO*%
%TO.N,/+12V1*%
X137586666Y-70500000D03*
%TD*%
D17*
%TO.P,C20,1*%
%TO.N,GND*%
X156056750Y-84750000D03*
D18*
%TO.P,C20,2*%
%TO.N,Net-(C12-Pad2)*%
X151056750Y-84750000D03*
%TD*%
D26*
%TO.P,C8,1*%
%TO.N,/+15DC*%
X116000000Y-56500000D03*
D27*
%TO.P,C8,2*%
%TO.N,GND*%
X106000000Y-56500000D03*
%TD*%
D28*
%TO.N,/-12V*%
X153700000Y-74675000D03*
X169900000Y-106000000D03*
X161300000Y-74600000D03*
X169600000Y-99400000D03*
%TO.N,/+3\u002C3V*%
X133000000Y-100500000D03*
X131000000Y-93500000D03*
%TO.N,/-5V*%
X181800000Y-111000000D03*
X176100000Y-115100000D03*
%TO.N,/+15DC*%
X128575000Y-107125000D03*
X151800000Y-107150000D03*
%TD*%
M02*
