M48
; DRILL file {KiCad (6.0.0)} date Mon Feb 28 16:45:07 2022
; FORMAT={-:-/ absolute / inch / decimal}
; #@! TF.CreationDate,2022-02-28T16:45:07-03:00
; #@! TF.GenerationSoftware,Kicad,Pcbnew,(6.0.0)
; #@! TF.FileFunction,Plated,1,2,PTH
FMAT,2
INCH
; #@! TA.AperFunction,Plated,PTH,ComponentDrill
T1C0.0197
; #@! TA.AperFunction,Plated,PTH,ComponentDrill
T2C0.0311
; #@! TA.AperFunction,Plated,PTH,ComponentDrill
T3C0.0335
; #@! TA.AperFunction,Plated,PTH,ComponentDrill
T4C0.0354
; #@! TA.AperFunction,Plated,PTH,ViaDrill
T5C0.0394
; #@! TA.AperFunction,Plated,PTH,ComponentDrill
T6C0.0394
; #@! TA.AperFunction,Plated,PTH,ComponentDrill
T7C0.0433
; #@! TA.AperFunction,Plated,PTH,ComponentDrill
T8C0.0472
; #@! TA.AperFunction,Plated,PTH,ComponentDrill
T9C0.0551
; #@! TA.AperFunction,Plated,PTH,ComponentDrill
T10C0.0827
; #@! TA.AperFunction,Plated,PTH,ComponentDrill
T11C0.1260
%
G90
G05
T1
X4.0Y-1.3602
X4.0Y-4.7835
X4.0277Y-1.2934
X4.0277Y-1.427
X4.0277Y-4.7167
X4.0277Y-4.8503
X4.0945Y-1.2657
X4.0945Y-1.4547
X4.0945Y-4.689
X4.0945Y-4.878
X4.1613Y-1.2934
X4.1613Y-1.427
X4.1613Y-4.7167
X4.1613Y-4.8503
X4.189Y-1.3602
X4.189Y-4.7835
X7.4133Y-4.7835
X7.4252Y-1.3602
X7.4409Y-4.7167
X7.4409Y-4.8503
X7.4529Y-1.2934
X7.4529Y-1.427
X7.5078Y-4.689
X7.5078Y-4.878
X7.5197Y-1.2657
X7.5197Y-1.4547
X7.5746Y-4.7167
X7.5746Y-4.8503
X7.5865Y-1.2934
X7.5865Y-1.427
X7.6022Y-4.7835
X7.6142Y-1.3602
T2
X5.6251Y-3.7844
X6.0554Y-3.7844
T3
X5.9761Y-2.8723
X6.173Y-2.8723
X6.5217Y-2.7894
X6.5217Y-2.9862
X6.9006Y-3.908
X6.9685Y-2.7894
X6.9685Y-2.9862
X7.0974Y-3.908
X7.3198Y-3.9122
X7.5167Y-3.9122
T4
X6.1965Y-3.6561
X6.1965Y-3.9561
T5
X5.4173Y-3.685
X5.4173Y-3.9291
X5.8661Y-4.3858
X7.126Y-4.3898
T6
X4.3209Y-3.061
X4.3209Y-3.2579
X4.3225Y-3.7828
X4.3225Y-3.9797
X4.544Y-3.8248
X4.7408Y-3.8248
X4.9803Y-3.061
X4.9803Y-3.2579
X5.1673Y-3.061
X5.1673Y-3.2579
X5.4213Y-3.0118
X5.6181Y-3.0118
X6.4308Y-3.7943
X6.6276Y-3.7943
T7
X4.5408Y-3.9832
X4.5539Y-3.2579
X4.6408Y-3.9832
X4.6539Y-3.2579
X4.7408Y-3.9832
X4.7539Y-3.2579
X5.3483Y-2.0297
X5.3483Y-2.325
X5.4168Y-3.2579
X5.5168Y-3.2579
X5.6168Y-3.2579
X5.7603Y-3.9832
X5.8603Y-3.9832
X5.9603Y-3.9832
X6.073Y-3.2579
X6.173Y-3.2579
X6.273Y-3.2579
X6.3283Y-2.0297
X6.3283Y-2.325
X6.4292Y-3.9832
X6.5292Y-3.9832
X6.6292Y-3.9832
X7.0161Y-3.2522
X7.1161Y-3.2522
X7.2161Y-3.2522
T8
X5.6004Y-1.2697
X5.6004Y-1.6988
X6.0295Y-1.2697
X6.0295Y-1.6949
T9
X4.5654Y-4.7372
X4.6457Y-1.3976
X4.7654Y-4.7372
X4.8425Y-1.3976
X5.0394Y-1.3976
X5.2044Y-4.7539
X5.4012Y-4.7539
X5.5981Y-4.7539
X6.0555Y-4.7539
X6.2523Y-4.7539
X6.4492Y-4.7539
X6.9079Y-4.7372
X7.1079Y-4.7372
T10
X4.1732Y-2.2244
X4.5669Y-2.2244
X7.0546Y-2.1797
X7.4483Y-2.1797
T11
X4.0945Y-1.3602
X4.0945Y-4.7835
X7.5078Y-4.7835
X7.5197Y-1.3602
T0
M30
