%TF.GenerationSoftware,KiCad,Pcbnew,(6.0.0)*%
%TF.CreationDate,2022-02-28T16:45:58-03:00*%
%TF.ProjectId,Circuito fuente,43697263-7569-4746-9f20-6675656e7465,V02*%
%TF.SameCoordinates,Original*%
%TF.FileFunction,Copper,L1,Top*%
%TF.FilePolarity,Positive*%
%FSLAX46Y46*%
G04 Gerber Fmt 4.6, Leading zero omitted, Abs format (unit mm)*
G04 Created by KiCad (PCBNEW (6.0.0)) date 2022-02-28 16:45:58*
%MOMM*%
%LPD*%
G01*
G04 APERTURE LIST*
%TA.AperFunction,ComponentPad*%
%ADD10C,2.000000*%
%TD*%
%TA.AperFunction,ComponentPad*%
%ADD11R,1.905000X2.000000*%
%TD*%
%TA.AperFunction,ComponentPad*%
%ADD12O,1.905000X2.000000*%
%TD*%
%TA.AperFunction,ComponentPad*%
%ADD13R,1.650000X1.650000*%
%TD*%
%TA.AperFunction,ComponentPad*%
%ADD14C,1.650000*%
%TD*%
%TA.AperFunction,ComponentPad*%
%ADD15C,0.800000*%
%TD*%
%TA.AperFunction,ComponentPad*%
%ADD16C,6.400000*%
%TD*%
%TA.AperFunction,ComponentPad*%
%ADD17R,1.200000X1.200000*%
%TD*%
%TA.AperFunction,ComponentPad*%
%ADD18C,1.200000*%
%TD*%
%TA.AperFunction,ComponentPad*%
%ADD19R,2.100000X2.100000*%
%TD*%
%TA.AperFunction,ComponentPad*%
%ADD20C,2.100000*%
%TD*%
%TA.AperFunction,ComponentPad*%
%ADD21R,1.800000X1.800000*%
%TD*%
%TA.AperFunction,ComponentPad*%
%ADD22O,1.800000X1.800000*%
%TD*%
%TA.AperFunction,ComponentPad*%
%ADD23C,1.190000*%
%TD*%
%TA.AperFunction,ComponentPad*%
%ADD24R,2.400000X2.400000*%
%TD*%
%TA.AperFunction,ComponentPad*%
%ADD25C,2.400000*%
%TD*%
%TA.AperFunction,ComponentPad*%
%ADD26R,3.150000X3.150000*%
%TD*%
%TA.AperFunction,ComponentPad*%
%ADD27C,3.150000*%
%TD*%
%TA.AperFunction,ViaPad*%
%ADD28C,1.500000*%
%TD*%
G04 APERTURE END LIST*
D10*
%TO.P,C23,1,1*%
%TO.N,/+5V*%
X109750000Y-82750000D03*
%TO.P,C23,2,2*%
%TO.N,GND*%
X109750000Y-77750000D03*
%TD*%
D11*
%TO.P,Q1,1,B*%
%TO.N,Net-(D1-Pad1)*%
X151392000Y-101174000D03*
D12*
%TO.P,Q1,2,C*%
%TO.N,/+15DC*%
X148852000Y-101174000D03*
%TO.P,Q1,3,E*%
%TO.N,Net-(C26-Pad1)*%
X146312000Y-101174000D03*
%TD*%
D13*
%TO.P,C14,1*%
%TO.N,GND*%
X160738000Y-51554000D03*
D14*
%TO.P,C14,2*%
%TO.N,Net-(C12-Pad2)*%
X160738000Y-59054000D03*
%TD*%
D11*
%TO.P,U41,1,GND*%
%TO.N,GND*%
X183290000Y-82605000D03*
D12*
%TO.P,U41,2,VI*%
%TO.N,/-12V*%
X180750000Y-82605000D03*
%TO.P,U41,3,VO*%
%TO.N,/-5V*%
X178210000Y-82605000D03*
%TD*%
D15*
%TO.P,H2,1*%
%TO.N,N/C*%
X192394112Y-119802944D03*
D16*
X190697056Y-121500000D03*
D15*
X190697056Y-123900000D03*
X193097056Y-121500000D03*
X192394112Y-123197056D03*
X188297056Y-121500000D03*
X189000000Y-123197056D03*
X189000000Y-119802944D03*
X190697056Y-119100000D03*
%TD*%
D17*
%TO.P,C21,1*%
%TO.N,GND*%
X165650000Y-70850000D03*
D18*
%TO.P,C21,2*%
%TO.N,/-12V*%
X165650000Y-75850000D03*
%TD*%
D10*
%TO.P,C22,1,1*%
%TO.N,/+12V1*%
X126500000Y-82750000D03*
%TO.P,C22,2,2*%
%TO.N,GND*%
X126500000Y-77750000D03*
%TD*%
D19*
%TO.P,U1,1*%
%TO.N,/-15VAC*%
X118000000Y-35500000D03*
D20*
%TO.P,U1,2*%
%TO.N,GND*%
X123000000Y-35500000D03*
%TO.P,U1,3*%
%TO.N,/+15VAC*%
X128000000Y-35500000D03*
%TD*%
D10*
%TO.P,C17,1,1*%
%TO.N,/+12V2*%
X109792000Y-101084000D03*
%TO.P,C17,2,2*%
%TO.N,GND*%
X109792000Y-96084000D03*
%TD*%
D20*
%TO.P,U5,1*%
%TO.N,/+5V*%
X132190500Y-120750000D03*
%TO.P,U5,2*%
%TO.N,GND*%
X137190500Y-120750000D03*
D19*
%TO.P,U5,3*%
%TO.N,/-5V*%
X142190500Y-120750000D03*
%TD*%
D17*
%TO.P,C25,1*%
%TO.N,GND*%
X190924000Y-99370750D03*
D18*
%TO.P,C25,2*%
%TO.N,/-5V*%
X185924000Y-99370750D03*
%TD*%
D11*
%TO.P,U40,1,VI*%
%TO.N,/+12V1*%
X120750000Y-82750000D03*
D12*
%TO.P,U40,2,GND*%
%TO.N,GND*%
X118210000Y-82750000D03*
%TO.P,U40,3,VO*%
%TO.N,/+5V*%
X115670000Y-82750000D03*
%TD*%
D10*
%TO.P,C26,1,1*%
%TO.N,Net-(C26-Pad1)*%
X163342000Y-96374000D03*
%TO.P,C26,2,2*%
%TO.N,GND*%
X168342000Y-96374000D03*
%TD*%
D15*
%TO.P,H1,1*%
%TO.N,N/C*%
X101600000Y-121500000D03*
X102302944Y-119802944D03*
D16*
X104000000Y-121500000D03*
D15*
X105697056Y-123197056D03*
X106400000Y-121500000D03*
X104000000Y-123900000D03*
X105697056Y-119802944D03*
X102302944Y-123197056D03*
X104000000Y-119100000D03*
%TD*%
D21*
%TO.P,D1,1,K*%
%TO.N,Net-(D1-Pad1)*%
X157392000Y-92864000D03*
D22*
%TO.P,D1,2,A*%
%TO.N,GND*%
X157392000Y-100484000D03*
%TD*%
D23*
%TO.P,R1,1*%
%TO.N,/+15DC*%
X142877000Y-96124000D03*
%TO.P,R1,2*%
%TO.N,Net-(D1-Pad1)*%
X153807000Y-96124000D03*
%TD*%
D11*
%TO.P,U39,1,GND*%
%TO.N,GND*%
X159333332Y-82750000D03*
D12*
%TO.P,U39,2,VI*%
%TO.N,Net-(C12-Pad2)*%
X156793332Y-82750000D03*
%TO.P,U39,3,VO*%
%TO.N,/-12V*%
X154253332Y-82750000D03*
%TD*%
D11*
%TO.P,U45,1,GND*%
%TO.N,GND*%
X168382000Y-101174000D03*
D12*
%TO.P,U45,2,VO*%
%TO.N,/+3\u002C3V*%
X165842000Y-101174000D03*
%TO.P,U45,3,VI*%
%TO.N,Net-(C26-Pad1)*%
X163302000Y-101174000D03*
%TD*%
D19*
%TO.P,U6,1*%
%TO.N,/+3\u002C3V*%
X180540000Y-120323903D03*
D20*
%TO.P,U6,2*%
%TO.N,GND*%
X175460000Y-120323903D03*
%TD*%
D10*
%TO.P,C19,1,1*%
%TO.N,/+12V1*%
X131250000Y-82750000D03*
%TO.P,C19,2,2*%
%TO.N,GND*%
X131250000Y-77750000D03*
%TD*%
D17*
%TO.P,C27,1*%
%TO.N,/+3\u002C3V*%
X175274000Y-99264000D03*
D18*
%TO.P,C27,2*%
%TO.N,GND*%
X180274000Y-99264000D03*
%TD*%
D20*
%TO.P,U2,1*%
%TO.N,/+12V2*%
X115960000Y-120323903D03*
D19*
%TO.P,U2,2*%
%TO.N,GND*%
X121040000Y-120323903D03*
%TD*%
D15*
%TO.P,H3,1*%
%TO.N,N/C*%
X189302944Y-36247056D03*
X189302944Y-32852944D03*
X193400000Y-34550000D03*
X191000000Y-32150000D03*
X188600000Y-34550000D03*
X191000000Y-36950000D03*
D16*
X191000000Y-34550000D03*
D15*
X192697056Y-32852944D03*
X192697056Y-36247056D03*
%TD*%
D13*
%TO.P,C10,1*%
%TO.N,/+15DC*%
X135846000Y-59054000D03*
D14*
%TO.P,C10,2*%
%TO.N,GND*%
X135846000Y-51554000D03*
%TD*%
D11*
%TO.P,U4,1,VI*%
%TO.N,/+15DC*%
X120417000Y-101174000D03*
D12*
%TO.P,U4,2,GND*%
%TO.N,GND*%
X117877000Y-101174000D03*
%TO.P,U4,3,VO*%
%TO.N,/+12V2*%
X115337000Y-101174000D03*
%TD*%
D10*
%TO.P,C16,1,1*%
%TO.N,/+15DC*%
X120417000Y-97149000D03*
%TO.P,C16,2,2*%
%TO.N,GND*%
X115417000Y-97149000D03*
%TD*%
D24*
%TO.P,D2,1,+*%
%TO.N,/+15DC*%
X142250000Y-43150000D03*
D25*
%TO.P,D2,2,-*%
%TO.N,Net-(C12-Pad2)*%
X153150000Y-43050000D03*
%TO.P,D2,3*%
%TO.N,/+15VAC*%
X153150000Y-32250000D03*
%TO.P,D2,4*%
%TO.N,/-15VAC*%
X142250000Y-32250000D03*
%TD*%
D26*
%TO.P,C12,1*%
%TO.N,GND*%
X189186000Y-55364000D03*
D27*
%TO.P,C12,2*%
%TO.N,Net-(C12-Pad2)*%
X179186000Y-55364000D03*
%TD*%
D17*
%TO.P,C24,1*%
%TO.N,GND*%
X177000000Y-70850000D03*
D18*
%TO.P,C24,2*%
%TO.N,/-12V*%
X177000000Y-75850000D03*
%TD*%
D15*
%TO.P,H4,1*%
%TO.N,N/C*%
X105697056Y-36247056D03*
X104000000Y-36950000D03*
X101600000Y-34550000D03*
X105697056Y-32852944D03*
X104000000Y-32150000D03*
X106400000Y-34550000D03*
X102302944Y-32852944D03*
X102302944Y-36247056D03*
D16*
X104000000Y-34550000D03*
%TD*%
D20*
%TO.P,U3,1*%
%TO.N,/+12V1*%
X153809500Y-120750000D03*
%TO.P,U3,2*%
%TO.N,GND*%
X158809500Y-120750000D03*
D19*
%TO.P,U3,3*%
%TO.N,/-12V*%
X163809500Y-120750000D03*
%TD*%
D10*
%TO.P,C18,1,1*%
%TO.N,/+15DC*%
X142700000Y-76500000D03*
%TO.P,C18,2,2*%
%TO.N,GND*%
X137700000Y-76500000D03*
%TD*%
D11*
%TO.P,U35,1,VI*%
%TO.N,/+15DC*%
X142666666Y-82750000D03*
D12*
%TO.P,U35,2,GND*%
%TO.N,GND*%
X140126666Y-82750000D03*
%TO.P,U35,3,VO*%
%TO.N,/+12V1*%
X137586666Y-82750000D03*
%TD*%
D17*
%TO.P,C20,1*%
%TO.N,GND*%
X151793250Y-72956750D03*
D18*
%TO.P,C20,2*%
%TO.N,Net-(C12-Pad2)*%
X156793250Y-72956750D03*
%TD*%
D26*
%TO.P,C8,1*%
%TO.N,/+15DC*%
X116000000Y-56500000D03*
D27*
%TO.P,C8,2*%
%TO.N,GND*%
X106000000Y-56500000D03*
%TD*%
D28*
%TO.N,/+12V1*%
X137600000Y-99800000D03*
X137600000Y-93600000D03*
%TO.N,/-5V*%
X181000000Y-111500000D03*
X149000000Y-111400000D03*
%TD*%
M02*
